<?xml version="1.0" encoding="UTF-8" standalone="no"?>
<!-- Created with Inkscape (http://www.inkscape.org/) -->

<svg
   xmlns:dc="http://purl.org/dc/elements/1.1/"
   xmlns:cc="http://creativecommons.org/ns#"
   xmlns:rdf="http://www.w3.org/1999/02/22-rdf-syntax-ns#"
   xmlns:svg="http://www.w3.org/2000/svg"
   xmlns="http://www.w3.org/2000/svg"
   xmlns:sodipodi="http://sodipodi.sourceforge.net/DTD/sodipodi-0.dtd"
   xmlns:inkscape="http://www.inkscape.org/namespaces/inkscape"
   width="225"
   height="225"
   id="svg2"
   version="1.1"
   inkscape:version="0.48.4 r9939"
   sodipodi:docname="New document 1">
  <defs
     id="defs4" />
  <sodipodi:namedview
     id="base"
     pagecolor="#ffffff"
     bordercolor="#666666"
     borderopacity="1.0"
     inkscape:pageopacity="0.0"
     inkscape:pageshadow="2"
     inkscape:zoom="1.979899"
     inkscape:cx="139.06324"
     inkscape:cy="118.88534"
     inkscape:document-units="px"
     inkscape:current-layer="layer1"
     showgrid="true"
     inkscape:window-width="1280"
     inkscape:window-height="776"
     inkscape:window-x="0"
     inkscape:window-y="24"
     inkscape:window-maximized="1">
    <inkscape:grid
       type="xygrid"
       id="grid2985"
       empspacing="1"
       visible="true"
       enabled="true"
       snapvisiblegridlinesonly="true"
       spacingx="15px"
       spacingy="15px"
       dotted="true" />
  </sodipodi:namedview>
  <metadata
     id="metadata7">
    <rdf:RDF>
      <cc:Work
         rdf:about="">
        <dc:format>image/svg+xml</dc:format>
        <dc:type
           rdf:resource="http://purl.org/dc/dcmitype/StillImage" />
        <dc:title></dc:title>
      </cc:Work>
    </rdf:RDF>
  </metadata>
  <g
     inkscape:label="Layer 1"
     inkscape:groupmode="layer"
     id="layer1"
     transform="translate(0,-827.36218)">
    <rect
       style="fill:#000000;fill-opacity:1;stroke:none"
       id="rect2989"
       width="15"
       height="15"
       x="16.010153"
       y="873.06775" />
    <rect
       style="fill:#000000;fill-opacity:1;stroke:none"
       id="rect2989-9"
       width="15"
       height="15"
       x="16.010153"
       y="888.06775" />
    <rect
       style="fill:#000000;fill-opacity:1;stroke:none"
       id="rect2989-7"
       width="15"
       height="15"
       x="16.010153"
       y="903.06775" />
    <rect
       style="fill:#000000;fill-opacity:1;stroke:none"
       id="rect2989-1"
       width="15"
       height="15"
       x="16.010153"
       y="918.06775" />
    <rect
       style="fill:#000000;fill-opacity:1;stroke:none"
       id="rect2989-19"
       width="15"
       height="15"
       x="16.010153"
       y="933.06775" />
    <rect
       style="fill:#000000;fill-opacity:1;stroke:none"
       id="rect2989-15"
       width="15"
       height="15"
       x="31.010153"
       y="948.06775" />
    <rect
       style="fill:#000000;fill-opacity:1;stroke:none"
       id="rect2989-4"
       width="15"
       height="15"
       x="46.010151"
       y="963.06775" />
    <rect
       style="fill:#000000;fill-opacity:1;stroke:none"
       id="rect2989-2"
       width="15"
       height="15"
       x="136.01015"
       y="993.06775" />
    <rect
       style="fill:#000000;fill-opacity:1;stroke:none"
       id="rect2989-30"
       width="15"
       height="15"
       x="166.01015"
       y="963.06775" />
    <rect
       style="fill:#000000;fill-opacity:1;stroke:none"
       id="rect2989-65"
       width="15"
       height="15"
       x="181.01015"
       y="948.06775" />
    <rect
       style="fill:#000000;fill-opacity:1;stroke:none"
       id="rect2989-49"
       width="15"
       height="15"
       x="196.01015"
       y="933.06775" />
    <rect
       style="fill:#000000;fill-opacity:1;stroke:none"
       id="rect2989-462"
       width="15"
       height="15"
       x="196.01015"
       y="918.06775" />
    <rect
       style="fill:#000000;fill-opacity:1;stroke:none"
       id="rect2989-69"
       width="15"
       height="15"
       x="196.01015"
       y="918.06775" />
    <rect
       style="fill:#000000;fill-opacity:1;stroke:none"
       id="rect2989-196"
       width="15"
       height="15"
       x="196.01015"
       y="888.06775" />
    <rect
       style="fill:#000000;fill-opacity:1;stroke:none"
       id="rect2989-13"
       width="15"
       height="15"
       x="196.01015"
       y="888.06775" />
    <rect
       style="fill:#000000;fill-opacity:1;stroke:none"
       id="rect2989-193"
       width="15"
       height="15"
       x="196.01015"
       y="888.06775" />
    <rect
       style="fill:#000000;fill-opacity:1;stroke:none"
       id="rect2989-72"
       width="15"
       height="15"
       x="196.01015"
       y="888.06775" />
    <rect
       style="fill:#000000;fill-opacity:1;stroke:none"
       id="rect2989-96"
       width="15"
       height="15"
       x="196.01015"
       y="888.06775" />
    <rect
       style="fill:#000000;fill-opacity:1;stroke:none"
       id="rect2989-23"
       width="15"
       height="15"
       x="196.01015"
       y="888.06775" />
    <rect
       style="fill:#000000;fill-opacity:1;stroke:none"
       id="rect2989-153"
       width="15"
       height="15"
       x="196.01015"
       y="888.06775" />
    <rect
       style="fill:#000000;fill-opacity:1;stroke:none"
       id="rect2989-43"
       width="15"
       height="15"
       x="196.01015"
       y="888.06775" />
    <rect
       style="fill:#000000;fill-opacity:1;stroke:none"
       id="rect2989-67"
       width="15"
       height="15"
       x="196.01015"
       y="873.06775" />
    <rect
       style="fill:#000000;fill-opacity:1;stroke:none"
       id="rect2989-44"
       width="15"
       height="15"
       x="196.01015"
       y="903.06775" />
    <rect
       style="fill:#000000;fill-opacity:1;stroke:none"
       id="rect2989-40"
       width="15"
       height="15"
       x="61.010151"
       y="978.06775" />
    <rect
       style="fill:#000000;fill-opacity:1;stroke:none"
       id="rect2989-61"
       width="15"
       height="15"
       x="151.01015"
       y="978.06775" />
    <rect
       style="fill:#000000;fill-opacity:1;stroke:none"
       id="rect2989-8"
       width="15"
       height="15"
       x="76.010155"
       y="993.06775" />
    <rect
       style="fill:#000000;fill-opacity:1;stroke:none"
       id="rect2989-89"
       width="15"
       height="15"
       x="91.010155"
       y="993.06775" />
    <rect
       style="fill:#000000;fill-opacity:1;stroke:none"
       id="rect2989-898"
       width="15"
       height="15"
       x="106.01015"
       y="1008.0677" />
    <rect
       style="fill:#000000;fill-opacity:1;stroke:none"
       id="rect2989-63"
       width="15"
       height="15"
       x="121.01015"
       y="993.06775" />
    <rect
       style="fill:#000000;fill-opacity:1;stroke:none"
       id="rect2989-6"
       width="15"
       height="15"
       x="31.010153"
       y="858.06775" />
    <rect
       style="fill:#000000;fill-opacity:1;stroke:none"
       id="rect2989-76"
       width="15"
       height="15"
       x="46.010151"
       y="843.06775" />
    <rect
       style="fill:#000000;fill-opacity:1;stroke:none"
       id="rect2989-3"
       width="15"
       height="15"
       x="61.010151"
       y="843.06775" />
    <rect
       style="fill:#000000;fill-opacity:1;stroke:none"
       id="rect2989-11"
       width="15"
       height="15"
       x="76.010155"
       y="843.06775" />
    <rect
       style="fill:#000000;fill-opacity:1;stroke:none"
       id="rect2989-68"
       width="15"
       height="15"
       x="91.010155"
       y="858.06775" />
    <rect
       style="fill:#000000;fill-opacity:1;stroke:none"
       id="rect2989-5"
       width="15"
       height="15"
       x="106.01015"
       y="873.06775" />
    <rect
       style="fill:#000000;fill-opacity:1;stroke:none"
       id="rect2989-22"
       width="15"
       height="15"
       x="121.01015"
       y="858.06775" />
    <rect
       style="fill:#000000;fill-opacity:1;stroke:none"
       id="rect2989-39"
       width="15"
       height="15"
       x="136.01015"
       y="843.06775" />
    <rect
       style="fill:#000000;fill-opacity:1;stroke:none"
       id="rect2989-686"
       width="15"
       height="15"
       x="151.01015"
       y="843.06775" />
    <rect
       style="fill:#000000;fill-opacity:1;stroke:none"
       id="rect2989-84"
       width="15"
       height="15"
       x="166.01015"
       y="843.06775" />
    <rect
       style="fill:#000000;fill-opacity:1;stroke:none"
       id="rect2989-77"
       width="15"
       height="15"
       x="181.01015"
       y="858.06775" />
    <path
       style="fill:#ff0000;fill-opacity:1;stroke:none"
       d="m 106.43531,172.98676 0,-7.57614 -15.152285,0 -15.152288,0 0,-7.57615 0,-7.57614 -7.323606,0 -7.323606,0 0,-7.32361 0,-7.3236 -7.576144,0 -7.576144,0 0,-7.57615 0,-7.57614 -7.576144,0 -7.576144,0 0,-37.375646 0,-37.375644 7.576144,0 7.576144,0 0,-7.323606 0,-7.323606 22.223356,0 22.223356,0 0,7.323606 0,7.323606 7.576144,0 7.576147,0 0,7.576144 0,7.576144 7.57614,0 7.57615,0 0,-7.576144 0,-7.576144 7.57614,0 7.57614,0 0,-7.323606 0,-7.323606 22.22336,0 22.22336,0 0,7.323606 0,7.323606 7.57614,0 7.57614,0 0,37.375644 0,37.375646 -7.57614,0 -7.57614,0 0,7.57614 0,7.57615 -7.57615,0 -7.57614,0 0,7.3236 0,7.32361 -7.32361,0 -7.3236,0 0,7.57614 0,7.57615 -15.15229,0 -15.15229,0 0,7.57614 0,7.57615 -7.07107,0 -7.07107,0 0,-7.57615 z"
       id="path3608"
       inkscape:connector-curvature="0"
       transform="translate(0,827.36218)" />
  </g>
</svg>
